# xmcd
#
# Track frame offsets:
#	150
#	57265
#	84321
#	97386
#	149342
#	160592
#
# Disc length: 2502 seconds
#
# Revision: 1
# Processed by: cddbd v1.5.2PL0 Copyright (c) Steve Scherf et al.
# Submitted via: audiograbber 1.83.01
#
DISCID=4a09c406
DTITLE=Grateful Dead - 95-05-20A Sam Boyd Silver Bowl, Las Vegas NV
DYEAR=1900
DGENRE=
TTITLE0=Space
TTITLE1=The Last Time
TTITLE2=That Would Be Something
TTITLE3=Morning Dew
TTITLE4=Crowd
TTITLE5=One More Saturday Night
EXTD=
EXTT0=
EXTT1=
EXTT2=
EXTT3=
EXTT4=
EXTT5=
PLAYORDER=
